<?xml version="1.0" encoding="utf-8"?>
<!-- Generator: Adobe Illustrator 22.1.0, SVG Export Plug-In . SVG Version: 6.00 Build 0)  -->
<svg version="1.1" id="Capa_1" xmlns="http://www.w3.org/2000/svg" xmlns:xlink="http://www.w3.org/1999/xlink" x="0px" y="0px"
	 viewBox="0 0 512 512" style="enable-background:new 0 0 512 512;" xml:space="preserve">
<style type="text/css">
	.st0{fill:#FEFEFE;}
</style>
<g>
	<g>
		<path class="st0" d="M237.7,359.1l-84.9-84.9c-17.5-17.5-46.1-17.5-63.6,0c-5.9,5.9-5.9,15.4,0,21.2l127.3,127.3
			c5.9,5.9,15.4,5.9,21.2,0C255.3,405.2,255.3,376.7,237.7,359.1z"/>
	</g>
</g>
<g>
	<g>
		
			<rect x="80.5" y="371.5" transform="matrix(0.7071 -0.7071 0.7071 0.7071 -251.5822 195.718)" class="st0" width="60" height="60"/>
	</g>
</g>
<g>
	<g>
		<path class="st0" d="M89.2,465.2l-42.4-42.4C29.6,405.5,0,417.8,0,442.1V467c0,12.4,5,23.6,13.2,31.8S32.6,512,45,512h24.9
			C94.2,512,106.5,482.4,89.2,465.2z"/>
	</g>
</g>
<g>
	<g>
		<path class="st0" d="M494.9,0.1L346.4,21.3c-3.7,0.5-7.1,2.4-9.5,5.3L160.3,239.2l45.7,45.7L343.8,147c5.9-5.9,15.4-5.9,21.2,0
			s5.9,15.4,0,21.2L227.1,306.1l45.7,45.7l212.5-176.7c2.9-2.4,4.8-5.8,5.3-9.5l21.2-148.5C513.2,7.8,504.2-1.2,494.9,0.1z"/>
	</g>
</g>
</svg>
