<svg id="Layer_1" data-name="Layer 1" xmlns="http://www.w3.org/2000/svg" viewBox="0 0 363 75"><defs><style>.cls-1{fill:#5e4637;}.cls-2{font-size:21.47px;fill:#fff;font-family:OldStory, Old Story;}.cls-3{letter-spacing:-0.02em;}</style></defs><title>wordmark</title><path class="cls-1" d="M98,49l.2-.76.13-.51.11-.48a5.54,5.54,0,0,0,.11-1,3.82,3.82,0,0,1,.07-.69l.11-.65.19-1.56L99,43a1.07,1.07,0,0,1,.06-.27,1.44,1.44,0,0,0,0-1l0-.13,0-.14a.43.43,0,0,0-.11-.19.88.88,0,0,1-.11-1.1c0-.05,0-.11.05-.18v-.2l-.05-1v-1l0-.57,0-.57,0-.2,0-.2c0-.16,0-.29,0-.39v-.07a.49.49,0,0,0,.15-.53L98.76,35a.71.71,0,0,1,0-.29,2.77,2.77,0,0,0,0-.54v-.58a2.15,2.15,0,0,0-.06-.55.83.83,0,0,1,0-.68,1.27,1.27,0,0,0,0-.22.6.6,0,0,0,0-.22,3,3,0,0,1,0-1.67,1.92,1.92,0,0,0-.11-1,1,1,0,0,1-.05-.33l0-.17v-.18l0-.88-.06-1.4-.07-1a.77.77,0,0,0-.59-.75l0,0a.66.66,0,0,0-.55-.33l-.31,0-.31,0a2.07,2.07,0,0,1-1.16-.3c-.22-.12-.34-.23-.35-.33s.07-.24.26-.44l.11-.09c.13-.13.19-.23.18-.29s-.08-.11-.22-.22a1.32,1.32,0,0,1-.4-.33c-.16-.16-.14-.3.07-.44a2.57,2.57,0,0,1,1.51-.3,1.61,1.61,0,0,1,.55.11l.27.11.26.08.37.11a1.16,1.16,0,0,0,.35.11.29.29,0,0,0,.16-.06l.09-.07.08,0,.62-.07.59-.06.24-.05.25,0a2.46,2.46,0,0,1,.46-.07,3.15,3.15,0,0,0,.53-.06l.24-.05.26,0a.76.76,0,0,1,.35.09l.18.07.17,0a1.31,1.31,0,0,1,1,.46.61.61,0,0,0,.44.2h.24l.22,0a2,2,0,0,0,.44.05l.46,0,.82,0q.72,0,.72.66a1.17,1.17,0,0,1-.53,1,.54.54,0,0,1-.17.07h-.22l-.51,0-.48,0H105a.14.14,0,0,0-.09,0,.5.5,0,0,1-.48.14l-.51,0-.51,0a.43.43,0,0,0-.3.15.43.43,0,0,0-.16.33l.09.53.09.53,0,.11v.13l-.11.46a3.25,3.25,0,0,0-.11.46c0,.12,0,.26,0,.42l0,.44,0,.11a.51.51,0,0,1,0,.09,1.15,1.15,0,0,0-.11.54l0,.29,0,.26c0,.05,0,.11,0,.2v.2c0,.59-.08,1-.13,1.34-.07.47-.16,1-.26,1.45l-.11.35-.13.37a3.58,3.58,0,0,0-.18,1.74,1.49,1.49,0,0,1,0,.46.72.72,0,0,1-.2.46.5.5,0,0,0,0,.2l0,.13v.13l0,1.35v.37l0,.37V39l0,.94a4.36,4.36,0,0,0,.07.68l.07.33.08.35a4.25,4.25,0,0,1,0,.69v.68l0,.33,0,.3,0,1v1l0,.33,0,.33,0,.46,0,.46.08.44.09.46,0,.33,0,.35a1.33,1.33,0,0,0,.17.42l.31.44.13.2.13.2.11,0,.11.07.2.11.24.13.27.11a1.26,1.26,0,0,0,.59.11c.28,0,.66,0,1.14,0l1.14,0,.53,0,.53,0,.53,0,.52,0,1,0h.59l.11,0,.13,0,.07,0,0,0,.64-.31.18-.13a.77.77,0,0,1,.17-.11l.9-.33a.41.41,0,0,0,.31-.24l.09-.18,0-.19a2.36,2.36,0,0,0,0-1.15,1.49,1.49,0,0,1,0-.17l0-.09v-.09l0-.74v-.14l0-.11a.37.37,0,0,0-.16-.22c-.08,0-.11-.16-.08-.37a1,1,0,0,1,.19-.48.79.79,0,0,1,.88-.27l.33.11.35.14a2,2,0,0,0,.66.11.72.72,0,0,1,.53.19l.15.2.16.2a.32.32,0,0,1,.06.22v.13l0,.13a.73.73,0,0,1-.09.22l-.08.22a5.3,5.3,0,0,0-.13,1.21l0,.44v.42a6,6,0,0,0,0,.88s0,.06,0,.11l0,.13v.39a3.87,3.87,0,0,0,0,.51l.05.5a1.47,1.47,0,0,1-.27,1,1.58,1.58,0,0,1-.68.46,4,4,0,0,1-1.51.22,1.15,1.15,0,0,1-.29-.09l-.13-.06-.16,0-.37,0-.37,0-.35-.07-.38,0-.15,0a.5.5,0,0,0-.18,0,2.35,2.35,0,0,1-1.54.22h-.06l-.09,0-1,.13-.11,0c-.06,0-.09,0-.11,0a.83.83,0,0,0-.55,0l-.28.06a.61.61,0,0,1-.27,0,.25.25,0,0,0-.11.05l0,0-.07,0a1.29,1.29,0,0,1-.53.06l-.28-.06L106,53a.7.7,0,0,0-.29,0l-.15,0-.16,0-.83.08c-.13-.23-.38-.29-.73-.17a2,2,0,0,1-.42.09l-.43,0h-.11l-.95.11-.94.11-.27,0-.15-.05-.18,0a.75.75,0,0,1-.9-.18l-.11.14-.11.11a1,1,0,0,0-.75.06,1.78,1.78,0,0,1-.37.09l-.2,0-.17,0-.31.09-.31,0c-.19,0-.31,0-.37-.13a.52.52,0,0,0-.16-.18l-.17-.17a.81.81,0,0,1-.55.06,3.06,3.06,0,0,1-.48-.17L95.18,53,95,52.86s-.08,0-.11-.11l-.09-.15,0-.09a.13.13,0,0,0-.07-.06,1.4,1.4,0,0,1-.48-.6.59.59,0,0,1,0-.44c.07-.2.17-.32.29-.35a2,2,0,0,0,.5-.28,1.32,1.32,0,0,1,1-.25.65.65,0,0,0,.62-.15.71.71,0,0,1,.22-.15l.11,0,.13-.06.35-.18.37-.2Zm1.3-.13,0-.77-.11,0,0,.2-.07.2a.45.45,0,0,0,.09.39Zm.94-22.06.18-.72.2-1,0-.16v-.17s0-.06-.07-.09l-.08-.06-.09.06-.05.09c-.11.41-.19.73-.24,1s-.06.51-.11.87a.21.21,0,0,0,0,.11l.06.09Zm1.39,1a1.34,1.34,0,0,0,.26.79l0-.44,0-.46a1.77,1.77,0,0,0-.22-.88A2.19,2.19,0,0,0,101.64,27.82Z"/><path class="cls-1" d="M125.5,22.45c.12-.08.24-.18.37-.28l.29-.2,0,0,.55-.13a2.22,2.22,0,0,1,.57-.09c.06,0,.13,0,.2.09l.11.08.09.09a.38.38,0,0,0,.63.05,1.12,1.12,0,0,1,.84-.38,8.85,8.85,0,0,0,1.47,0l.57-.06.57-.09a1,1,0,0,1,.66.09,1.66,1.66,0,0,0,1.19.15,2.24,2.24,0,0,1,1.12,0,2.79,2.79,0,0,0,1.71,0,1.73,1.73,0,0,1,2.11.53,2.26,2.26,0,0,1,.53,1.47v.11l-.13.18-.11.18a.54.54,0,0,1-.29.22l-.24.06-.26.07a.84.84,0,0,1-.55-.09c-.24-.13-.5-.06-.79.22a.31.31,0,0,0-.07.39.17.17,0,0,1,0,.14l0,.13,0,.06a.17.17,0,0,0,0,.07l.14.44a3.66,3.66,0,0,1,.08.42l.05.61,0,.62.05.15,0,.18a8.48,8.48,0,0,1,.28,2.44q0,.59.09,1.62l0,.2,0,.22a1.15,1.15,0,0,1,0,.44,1.1,1.1,0,0,0,.07.44l.07.24.06.22.16.59L138,35l.09.39.09.4.17.44a1.21,1.21,0,0,0,.22.39,1.65,1.65,0,0,1,.24.71l.05.35.06.35a1.73,1.73,0,0,1,.05.42v.44a1.35,1.35,0,0,0,.2.81.3.3,0,0,1,0,.18.61.61,0,0,1-.07.17.81.81,0,0,0,0,.71l.19.48a2.82,2.82,0,0,1,.16.5l.17.88.16.9.11.71.09.7,0,.18,0,.15a.31.31,0,0,0,.2.22l0,.13v.13l.07.2.07.2a.51.51,0,0,1-.09.42.14.14,0,0,0,0,.13l0,.09,0,.08a4.25,4.25,0,0,1,.22.93l.07.46.09.46a1,1,0,0,0,.2.46l.13.24.13.22a.78.78,0,0,0,.72.38c.56,0,.85.25.88.59A1.12,1.12,0,0,0,143,51l.13.17.15.18.2.26.22.31-.5.46a6.36,6.36,0,0,1-.53.44.81.81,0,0,1-.31.13L142,53a2.79,2.79,0,0,1-1.87-.29.31.31,0,0,0-.26,0,.49.49,0,0,0-.27.06,2.26,2.26,0,0,1-1.16.4h-.62l-.61,0h-.09a1.13,1.13,0,0,1-.66.09.63.63,0,0,0-.33.07l-.17.06-.16.07a1,1,0,0,1-1.07-.33,1.55,1.55,0,0,0-.66-.31,3.51,3.51,0,0,1-1-.37.44.44,0,0,1-.11-.25.5.5,0,0,1,0-.3,1.17,1.17,0,0,1,.2-.29l.28-.24c.27-.19.53-.36.79-.51a2.62,2.62,0,0,1,.6-.13l.24-.06.24-.11a.57.57,0,0,1,.51,0l.15.08.18.07.19,0,.22,0a.54.54,0,0,0,.33-.29.61.61,0,0,0,.13-.42l-.06-.28-.09-.27,0-.13v-.11l-.09-.59,0-.22,0-.22a3.66,3.66,0,0,0-.07-.42.52.52,0,0,1,0-.31v-.33a.79.79,0,0,0-.2-.63.55.55,0,0,1-.09-.27V46l-.11-.44-.09-.42a.67.67,0,0,1,0-.2l0-.31,0-.3c0-.25,0-.46,0-.62a1.9,1.9,0,0,0-.11-.55l-.07-.26-.08-.24a2.11,2.11,0,0,1-1.26,0,1.64,1.64,0,0,0-1.12-.07l0,0-.05,0-.39-.09-.4,0a3.16,3.16,0,0,0-.9,0l-.39,0-.38,0a2.73,2.73,0,0,0-.79.14,1,1,0,0,1-.55,0l-.28,0-.29,0-.5-.09-.49,0a.25.25,0,0,0-.15.09.31.31,0,0,0-.09.17,4.15,4.15,0,0,1-.55,1.5l0,0v0a1.23,1.23,0,0,1-.15.66l-.16.3-.19.29a1.18,1.18,0,0,0-.16.48l0,.29,0,.26a13,13,0,0,1-.33,1.36,12.44,12.44,0,0,1-.38,1.26l-.13.37-.13.39a.15.15,0,0,0,.07.2c0,.05.1.06.19.05h.31l.33,0a1.05,1.05,0,0,0,.64-.13.69.69,0,0,1,.57,0,1.13,1.13,0,0,1,.48.33l.09.11a.27.27,0,0,0,.11.09,1.07,1.07,0,0,1,.42.35l.15.2.15.22.11.11.09.11a.84.84,0,0,1,.16.31,1.16,1.16,0,0,1-.16.79.59.59,0,0,1-.48.28,1.09,1.09,0,0,1-.66-.15,2.11,2.11,0,0,0-1.69-.33l-.16,0-.13.07-.33.09a2.21,2.21,0,0,1-.63,0l-.33-.07-.31-.06-.2,0-.2,0a1,1,0,0,1-.37-.18.47.47,0,0,0-.29,0l-.19,0-.18.05a4.59,4.59,0,0,0-.83.3l-.18.11-.15.14-.07,0-.07,0-.22,0h-.22a1.93,1.93,0,0,0-.41.09,1.15,1.15,0,0,0-.31.18l-.31.24a1.67,1.67,0,0,1-1,.33,1.21,1.21,0,0,1-.94-.29l-.2-.19-.18-.2a.94.94,0,0,1-.15-.55l0-.13.07-.16.07-.17.06-.2a1.87,1.87,0,0,1,.18-.35l.26-.4a1.38,1.38,0,0,1,.35-.28l.22-.14.22-.11a.82.82,0,0,1,.53-.06s.09,0,.18-.07l.08-.09.11-.08.27-.22a2.32,2.32,0,0,0,.22-.25.83.83,0,0,0,.17-.26l.07-.15.06-.13c.08-.12.42-.83,1-2.13s1-2.2,1.14-2.51a1.87,1.87,0,0,1,.26-.51,1.88,1.88,0,0,0,.25-.79l.06-.41a1.17,1.17,0,0,1,.13-.4,5.06,5.06,0,0,0,.4-1.14,10.84,10.84,0,0,1,.33-1.21l.17-.48.2-.49.27-.79.28-.81.15-.33.16-.35a7.43,7.43,0,0,0,.26-.71,3.09,3.09,0,0,1,.22-.52l.13-.27.16-.24a2.19,2.19,0,0,0,.13-.39l0-.22.05-.2a2.77,2.77,0,0,1,.15-.29l.15-.28.12-.22c0-.09.05-.17.06-.24V33a1.17,1.17,0,0,1,.18-.62,1.82,1.82,0,0,0,.24-.66l0-.33,0-.32a1.14,1.14,0,0,1,.08-.27l.07-.13,0-.11c.15-.48.28-.92.38-1.3a3.46,3.46,0,0,0,.09-.85V28l0-.44a7.07,7.07,0,0,0-.19-1.69,1.64,1.64,0,0,0-.51-1,1.6,1.6,0,0,0-.92-.33,1.15,1.15,0,0,1-.53-.13l-.24-.13-.22-.14a.53.53,0,0,1-.33-.48l0-.29a1,1,0,0,0,0-.26,2.81,2.81,0,0,1-.06-.35v-.29Zm9.93,17.1-.07-.13,0-.07,0-.07s0-.07,0-.08a.42.42,0,0,0,.06-.38l-.06-.17-.07-.18a.37.37,0,0,0-.07-.2l-.11-.22a2.14,2.14,0,0,1-.13-.5l0-.53a3.4,3.4,0,0,0-.24-1v-.09l0-.11,0-.28.07-.29a1,1,0,0,0,0-.59,8.52,8.52,0,0,1-.2-.95v-.33a.78.78,0,0,0,0-.35,6.68,6.68,0,0,0-.37-1.12,1,1,0,0,1-.07-.28l-.07-.29a1.26,1.26,0,0,0-.21-.57.63.63,0,0,1-.12-.33l0-.18,0-.17V30l0-.06a.66.66,0,0,0,.08-.53l-.06-.26-.09-.27a.68.68,0,0,0-.48-.5.56.56,0,0,0-.4.08.79.79,0,0,0-.33.29,3.45,3.45,0,0,1-.39.42l-.18.15-.18.18a1.3,1.3,0,0,0-.28.41,2.83,2.83,0,0,0-.11.44l0,.42a3.43,3.43,0,0,1-.19.75l-.14.35-.13.37-.11.33-.08.33a1.42,1.42,0,0,0,0,.71l0,0v.07l-.29.68-.26.68a3.34,3.34,0,0,0-.2,1.4,1.33,1.33,0,0,1-.42,1.28.27.27,0,0,0-.13.17l-.18.53c0,.19-.08.36-.11.51a.23.23,0,0,0,.07.19.32.32,0,0,0,.13.16l.73.15.72.13.24,0,.22.06.36.11.37.14a3,3,0,0,0,.77.13,4,4,0,0,1,.61.06l.31.05.33,0a.42.42,0,0,0,.33-.11l.15-.11.18-.11a.55.55,0,0,1,.4-.06h.08l.09,0,.22-.08.13,0,.13-.06A.16.16,0,0,0,135.43,39.55Z"/><path class="cls-1" d="M151.27,27.29l0,.09v.15l-.09,1.19v0a1.64,1.64,0,0,1,.11.9l0,.46a1.1,1.1,0,0,0,0,.46,3.75,3.75,0,0,1,0,.64v.68l.07.31.11.31v.26a.31.31,0,0,0,0,.2,1.08,1.08,0,0,1,.24.79l0,.42-.05.39v1.54a1.18,1.18,0,0,1,0,.2,2.41,2.41,0,0,0-.15,1.16c0,.33.05.74.06,1.26l0,.63,0,.62a3.2,3.2,0,0,1,0,1,2.58,2.58,0,0,0-.06.6l0,.31v.3l0,.42,0,.4a4,4,0,0,0,0,.81l.07.33,0,.33c.05.28.09.5.13.66a2.55,2.55,0,0,1,.12.48l0,.24,0,.24,0,.38v.37a2.75,2.75,0,0,0,.13.75,5,5,0,0,1,.22.88l.09.44.11.44a1.28,1.28,0,0,0,.79.9.27.27,0,0,0,.15,0l.16-.05.26-.15a1.62,1.62,0,0,1,.27-.13c.66-.2,1.08.09,1.27.85a5,5,0,0,0,.24.77l.16.38.15.39q.18.39-.33.84a1,1,0,0,1-.4.24l-.26.06a.44.44,0,0,1-.26,0l-.75-.22-.75-.22a1.51,1.51,0,0,0-.66-.06,7.62,7.62,0,0,1-1.91,0,1.09,1.09,0,0,0-.39,0l-.2,0-.2,0-.66,0c-.28,0-.5,0-.66,0-.57,0-1.15.08-1.76.17a1,1,0,0,1-1.14-.53,10.41,10.41,0,0,1-.37-1.07.38.38,0,0,1,.11-.4,5.18,5.18,0,0,1,.61-.68,1,1,0,0,1,.88-.24l.18,0c.67.09,1-.24,1-1v-.52l0-.51a3.15,3.15,0,0,1,.21-1,.81.81,0,0,0,0-.75s0-.06,0-.13l0-.09,0-.06.09-.31a1.38,1.38,0,0,0,0-.31l0-.44,0-.44a4.17,4.17,0,0,1,0-.87,6.78,6.78,0,0,0,0-.86l0-.84.05-.41,0-.42c0-.63,0-1.16,0-1.58l0-.73,0-.72,0-.53.06-.53,0-.11v-.11a10.21,10.21,0,0,1-.11-1.73l0-.88,0-.88c0-.32,0-.73,0-1.21V31l0-1.18c0-.47,0-.87-.05-1.19a20.71,20.71,0,0,1,0-2.48,2.23,2.23,0,0,0-.66-1.94,1.22,1.22,0,0,1-.44-1.23c0-.25-.09-.36-.35-.33a.94.94,0,0,1-1.08-.63l-.06-.14-.07-.11a1.08,1.08,0,0,1-.15-.22,1.73,1.73,0,0,1-.07-.61.32.32,0,0,1,.11-.13.24.24,0,0,1,.16-.09l.46,0,.44-.05a2.25,2.25,0,0,1,.9.13l.09,0h.08A1.89,1.89,0,0,1,149,21a.67.67,0,0,0,.31,0,5,5,0,0,1,1.1,0l.55.07.55,0c.32,0,.72,0,1.21,0a.67.67,0,0,1,.68.33.9.9,0,0,1-.14.95l-.13.13-.11.15-.11.2-.09.2a.73.73,0,0,0,.05.48l.22.44.17.44a6.41,6.41,0,0,1,.33.9l.09.27.11.26a1.66,1.66,0,0,1,.09.59A.7.7,0,0,0,154,27a1.31,1.31,0,0,0,.33.4,2,2,0,0,1,.4.5l.15.29.15.28.42.8,0,0,0,.07a1.32,1.32,0,0,0,.19.72l.18.31.2.33.31.61.35.6.3.5.33.53.2.28.2.29.72,1.19.71,1.16.17.31.13.33c.12.28.22.48.29.61s.32.53.55.88l.57.86.2.31.17.33.77,1,.75,1c.13.2.29.45.46.73l.42.76.11.2.09.2a2.36,2.36,0,0,0,.19.39,1.27,1.27,0,0,0,.23.27l.1.13.14.13.26.35.26.36.18.15.22.15.13-.19a.73.73,0,0,0,.11-.22,1.62,1.62,0,0,0,0-.33l0-.33a7.32,7.32,0,0,1,.24-1.87.56.56,0,0,0,0-.27l0-.28-.06-1,0-.33-.14-1.34c0-.53-.08-1-.11-1.34a5.76,5.76,0,0,1,.07-.68l0-.36,0-.35a3.25,3.25,0,0,0-.06-.55l-.13-.57a3.83,3.83,0,0,1-.07-1.43v-.15l0-.15,0-.71,0-.7,0-.48.07-.49,0-.13-.05-.11,0-.81v-.51c0-.2,0-.37,0-.5a3,3,0,0,1,0-.95l.09-.46.06-.48,0-.24,0-.27-.05-.81,0-.81a.46.46,0,0,0-.46-.47,1.59,1.59,0,0,1-.51-.13l-.24-.11-.24-.08-.2-.07-.2,0a1.82,1.82,0,0,1-.37-.18,3.3,3.3,0,0,1-.44-.42l-.2-.24-.22-.22a.87.87,0,0,1-.15-1.08,1,1,0,0,1,.42-.35,1.17,1.17,0,0,1,.55-.13,3.34,3.34,0,0,0,1.38-.09l.13,0H165l.91,0,.9,0,.3,0,.29.06,1.1.16,1.07.15.58.11.55.13.57.11.57.09a.91.91,0,0,1,.74.44,1,1,0,0,1,0,.86l-.4,1.18a.67.67,0,0,1-.37.42.59.59,0,0,1-.55,0l-.88-.42a.27.27,0,0,0-.26,0,.59.59,0,0,0-.18.27l-.2,1.65c0,.33-.06.66-.09,1v.53l0,.51-.09.57-.11.57,0,.37v.35l0,.31,0,.29,0,.7,0,.7a6,6,0,0,0,.07,1.41c0,.23.08.55.11.94v.49l0,.48c0,.19.08.44.13.75l.16.72a.61.61,0,0,1-.16.62.8.8,0,0,0-.15.28l-.07.18,0,.18a2.37,2.37,0,0,0-.11.5l0,.29-.07.3a1,1,0,0,0,.09.6.57.57,0,0,1,0,.39l0,.22-.09.2a1.09,1.09,0,0,0-.09.66,2,2,0,0,1-.11,1,1.08,1.08,0,0,0,0,.57l.09.26,0,.26.07.58,0,.33a1.13,1.13,0,0,0,.05.35,3,3,0,0,1-.07,1.54,3.14,3.14,0,0,0-.07.41l0,.4,0,.55,0,.53a3.52,3.52,0,0,0,.17,1.67.34.34,0,0,0,.27.21.47.47,0,0,0,.37,0l.66-.19.64-.18a1.21,1.21,0,0,1,.66,0l.3.08.33.12a.75.75,0,0,1,.4.3l.15.2a.68.68,0,0,0,.18.13.15.15,0,0,1,.06.11.35.35,0,0,1,0,.13,3.59,3.59,0,0,0,0,.53l.09.51c.14.8-.23,1.2-1.12,1.18-.24,0-.51,0-.82-.08l-.81-.14a24,24,0,0,0-3.3-.17,4.47,4.47,0,0,1-1.14-.13,2.45,2.45,0,0,0-.92-.07l-.46,0-.46.07-.46.09-.47.06a.74.74,0,0,1-.66-.37.8.8,0,0,1-.15-.77.5.5,0,0,0-.15-.55,1.19,1.19,0,0,1-.31-.44.56.56,0,0,1,.24-.72.88.88,0,0,1,.9-.07.92.92,0,0,0,.42.11H164l.22,0,.09,0,.06,0,.11,0,.13,0c.09,0,.14-.07.14-.09a1.45,1.45,0,0,0-.18-.59,4.52,4.52,0,0,0-.28-.4l-.29-.39L163,46.87l-.17-.33-.15-.38-.11-.22-.09-.22a3,3,0,0,0-.22-.44,9.92,9.92,0,0,0-.86-1.14,1.89,1.89,0,0,1-.31-.48l-.13-.27-.09-.26-.24-.62c-.09-.21-.17-.41-.26-.59a3.78,3.78,0,0,0-.24-.35l-.16-.18-.11-.19-.15-.36-.16-.35-.32-.7-.36-.57-.37-.55-.2-.37a2.18,2.18,0,0,0-.19-.38l-.29-.46-.26-.46a4.39,4.39,0,0,0-.66-.84l-.07-.08a.12.12,0,0,1,0-.09,1.1,1.1,0,0,0-.11-.51l-.11-.22-.11-.24-.07-.06-.06-.07-.25-.4-.17-.3a3.43,3.43,0,0,0-.2-.29,3.84,3.84,0,0,1-.66-1l-.26-.52a4.68,4.68,0,0,0-.31-.53l-.29-.46-.26-.49a6.7,6.7,0,0,0-.64-.9,6.73,6.73,0,0,1-.77-1.23l-.3-.66-.31-.66c-.1-.22-.31-.3-.62-.26Zm15.45,10.37c0-.16,0-.41.07-.75C166.42,37.06,166.4,37.31,166.72,37.66Zm-.07.79.07-.2,0-.17s0,0-.06,0l0,0,0,0-.11.41Z"/><path class="cls-1" d="M179,22l.16-.27,0,0h.06a.37.37,0,0,0,.25.07l.24,0a.73.73,0,0,1,.5.15c.05.05.15.06.31.05l.2,0,.17-.05.14,0h.11a2.44,2.44,0,0,0,1.12,0l.55-.11.57-.09.33,0,.35,0a2.2,2.2,0,0,1,.7.06,1.67,1.67,0,0,0,.51.09l.26,0h.26l.73,0,.72,0a4.2,4.2,0,0,1,.58.07l.28,0,.29,0,.33,0h.33a1.94,1.94,0,0,0,.68-.16.69.69,0,0,1,.33-.06h.17l.18,0h.11a.38.38,0,0,1,.42-.22l.22.06a.69.69,0,0,0,.21,0h.49a1.4,1.4,0,0,1,1.23.5.25.25,0,0,0,.09.07l.11,0,.66.24.66.27.19.09.18.08a3.76,3.76,0,0,1,.33.22.81.81,0,0,1,.13.31l0,.18.05.15.06.42.07.39v.05l0,.06,0,.4.05.39.2.77.22.75,0,.15a.53.53,0,0,1,0,.18.67.67,0,0,0,0,.44l.07.2.06.22a.24.24,0,0,1,0,.17l0,.09v.09c0,.31.06.64.11,1s.12.67.18.92a.43.43,0,0,1-.14.44s0,.09,0,.2l0,.11,0,.13,0,0,0,.07a.51.51,0,0,1,0,.09,1.78,1.78,0,0,0-.13,1l0,.51a1.8,1.8,0,0,1-.06.48,1.27,1.27,0,0,0,0,.42l0,.2a.56.56,0,0,1,0,.2,2.63,2.63,0,0,0,.22,1.56.06.06,0,0,1,0,.08v.29a.61.61,0,0,0,0,.15.59.59,0,0,1-.17.82v.3a1.89,1.89,0,0,1,0,.31l0,.31a1.43,1.43,0,0,0,0,.66,3.28,3.28,0,0,1,.14.86v.41l0,.44a1.91,1.91,0,0,1-.07.48l-.09.49,0,.17a.43.43,0,0,0,0,.16,2.37,2.37,0,0,1,.11.77l0,.39,0,.38a.73.73,0,0,1,0,.33l-.06.15-.05.17-.06.23,0,.24a1.05,1.05,0,0,0,0,.5s0,.08,0,.16l0,.11-.05.08a2.73,2.73,0,0,0-.06,1.43.72.72,0,0,1,0,.24l-.05.27-.11.39a1.76,1.76,0,0,0-.06.42,3,3,0,0,1-.29,1.14.62.62,0,0,0-.11.27.48.48,0,0,0,0,.26.56.56,0,0,1-.11.48,1.31,1.31,0,0,1-.4.25l-.11.32-.09.33a.41.41,0,0,0-.17.05l-.13.13a.39.39,0,0,1-.35.11h0v0a.52.52,0,0,1-.35.4l-.11,0-.13,0a1.4,1.4,0,0,0-.22.14.21.21,0,0,1-.15,0L193,52h-.09a.3.3,0,0,1-.2.33l-.2.07-.17.06a1.24,1.24,0,0,1-.4.14l-.41,0a.76.76,0,0,1-.29,0l-.31-.07a3,3,0,0,0-.81,0l-.4.07-.39,0-.75.07-.72.08-.51.11-.53.14-.22.08-.24.05a7.14,7.14,0,0,1-1.08.09l-.3,0-.29,0-.31,0-.28,0-.29-.07-.28,0h-.46l-.49,0-1.36,0-.42,0-.41,0-1.32.11a.64.64,0,0,0-.22,0l-.13,0-.16,0-.09,0h-.13a.57.57,0,0,0-.26,0,3.88,3.88,0,0,1-1.5-.05.65.65,0,0,1-.15-.11l-.07-.06-.06-.05a3,3,0,0,1-.86-.48l-.06,0,0-.05,0-.24,0-.24a1.07,1.07,0,0,1,.15-.44,1.73,1.73,0,0,1,1.08-.62.86.86,0,0,1,.33,0l.18,0,.19,0h.12s.07,0,.08,0,.19-.19.31-.15l.18.09.15.06c.23-.17.42-.16.55,0l.07,0h.06l0-.05.05-.06.18-.11.17-.13a.51.51,0,0,0,.2-.4l0-.35v-.33a1.76,1.76,0,0,1,.11-.68.57.57,0,0,0,0-.37l-.07-.2,0-.22a.34.34,0,0,1,0-.2l0-.09,0-.09c0-.07,0-.12,0-.15a3.3,3.3,0,0,1,0-1.47.83.83,0,0,0,0-.22.48.48,0,0,0,0-.22.74.74,0,0,1-.09-.53l0-.26V44.1l0-.53,0-.22,0-.22,0-.18,0-.22a1.23,1.23,0,0,0,.26-.65.83.83,0,0,0-.15-.64.85.85,0,0,0,.19-.64l0-.35a1.8,1.8,0,0,1,0-.33v0l0,0a.1.1,0,0,1,0-.06.71.71,0,0,0,.19-.62l0-.33,0-.3,0-.58,0-.57,0-.19,0-.18,0-.42,0-.39,0-.2,0-.18a.43.43,0,0,0-.09-.39,2.12,2.12,0,0,0,.07-.57l0-.6a4.13,4.13,0,0,1,.08-1.16,1.46,1.46,0,0,0,0-.6l0-.3,0-.31,0-.31-.05-.28a4.67,4.67,0,0,1,0-.57,5.41,5.41,0,0,0,0-1.41l-.11-.46-.09-.44a11.63,11.63,0,0,1-.11-1.34l.07-.84.06-.85a.52.52,0,0,0-.11-.4l-.15-.13-.13-.13-.11-.11-.11-.11a.93.93,0,0,0-.92-.29l-.42,0-.44,0h-.09a.52.52,0,0,1-.5.08l-.25-.08-.22-.11c-.08,0-.16-.15-.22-.36a1.13,1.13,0,0,1,0-.5,2.26,2.26,0,0,0,0-.68.69.69,0,0,1,.27-.66,1.24,1.24,0,0,1,.7-.33l.4,0h.81a.69.69,0,0,0,.42-.2Zm1.91,23.38.07.13.06.15.07,0,.07,0h.06l-.17-.33Zm11.17,1.16,0-.66v-.24l0-.24a.82.82,0,0,1,.09-.42,2.28,2.28,0,0,0,.15-.77l0-.37,0-.4a3.71,3.71,0,0,0,0-.7V42l0-.51,0-.48-.09-.55-.11-.55c0-.42-.09-.84-.1-1.25a6.1,6.1,0,0,1,0-1.21l0-.22,0-.24a1.83,1.83,0,0,0,.07-.44l0-.22.07-.22a1.63,1.63,0,0,0,0-.46l0-.29-.05-.31a.94.94,0,0,1,.09-.59v-.07l0-.06-.11-.9-.09-.75,0-.06,0-.09c0-.06,0-.09,0-.09a.36.36,0,0,0,.06-.53.2.2,0,0,1,0-.11v-.13l0-.79-.06-.81a6.33,6.33,0,0,0-.25-1.32c0-.06,0-.15,0-.27l-.05-.26a.52.52,0,0,0-.39-.39l0-.07,0-.09,0-.17,0-.18a.67.67,0,0,0-.09-.31.64.64,0,0,1-.06-.22l-.05-.24a.52.52,0,0,0-.28-.37s0-.05,0-.09a.15.15,0,0,1,0-.13l0-.16,0-.15a.7.7,0,0,0,0-.29,1.2,1.2,0,0,0-.59-.83l-.22-.11-.22-.13a2.49,2.49,0,0,0-.79-.35l-.42-.09-.42-.09h-.08l-.09,0c-.08,0-.11,0-.11,0a.28.28,0,0,0-.22-.11h-.44a.37.37,0,0,1-.2,0,.93.93,0,0,0-.81-.11,1.25,1.25,0,0,1-.35,0l-.38,0a1.37,1.37,0,0,0-.7.11l-.11,0-.11.05q-.15,0-.18.06a.67.67,0,0,1-.17.27l-.22.19a1.11,1.11,0,0,0-.33.55,1.09,1.09,0,0,1-.11.27l-.15.28a1.77,1.77,0,0,0-.27.6l0,.24,0,.24a3,3,0,0,0,0,.46,4.91,4.91,0,0,0,0,.62l.09.61,0,.33.05.33a9.14,9.14,0,0,1,0,2l0,.11V31a.43.43,0,0,1-.06.2,1.08,1.08,0,0,0-.16.79,1.06,1.06,0,0,1-.06.51,1.24,1.24,0,0,0-.07,1,.37.37,0,0,1,.05.22l0,.24,0,.22.05.22a1,1,0,0,0,.13.39,1,1,0,0,1,.17.49l0,.15,0,.13.07.4a3.67,3.67,0,0,1,0,.39l0,.73-.07.74,0,.36,0,.33-.09.46-.09.46,0,.07,0,.08.07.24,0,.25a.66.66,0,0,1,0,.43,2.42,2.42,0,0,0-.07,1l.07.49,0,.5.09,1,.11,1,.06.48.09.51.09.72.09.75a5.65,5.65,0,0,1,0,.59l0,.31v.31c0,.1.05.22.09.37l.18.35a1.36,1.36,0,0,1,.13.77v.15l0,.14a1.05,1.05,0,0,1-.07.26.71.71,0,0,0,0,.62.78.78,0,0,0,.37.39c.12,0,.27.1.47.15l.48.16.09,0h0a.27.27,0,0,1,.29-.11l.13,0,.15.07a.48.48,0,0,0,.22,0l1.69-.28.77-.16.09,0,0-.09.09-.17.09-.16a.6.6,0,0,1,.31-.22l.09,0,.06-.07.18-.08.17-.12a1.82,1.82,0,0,1,.35-.17.44.44,0,0,0,.36-.35l0-.09,0-.11.25-.51c.08-.2.16-.37.22-.5a2.47,2.47,0,0,1,.85-1.19Zm-5.26,5.36-.28,0V52l.48.24.05-.17.06-.2Zm8.44-8.63.09-.2,0-.2-.06-.09-.05-.06,0-.05-.09.09a.21.21,0,0,0,0,.11l0,.2,0,.2Zm.11-7.52,0-.22-.11,0,0,.13,0,.11c0,.1.1.17.29.22Z"/><path class="cls-1" d="M202.21,50.38v-.24l0-.44a2.86,2.86,0,0,0-.07-.86.62.62,0,0,1,0-.28v-.31a.61.61,0,0,0,0-.24,2.89,2.89,0,0,1-.18-1.12l0-.24-.05-.25,0-.35a1.23,1.23,0,0,1,0-.39,1.11,1.11,0,0,0-.06-.44L201.7,45l-.07-.22,0-.07v-.06l.07-.42.09-.4a.68.68,0,0,0,0-.19,2.29,2.29,0,0,1-.15-1.21,1.14,1.14,0,0,0,0-.42l0-.22,0-.22,0-.46,0-.48,0-.53,0-.53v-.64a3.58,3.58,0,0,0-.05-.61l0-.33a1.17,1.17,0,0,0,0-.31,1.72,1.72,0,0,1,0-.46V37l0-.22,0-.22v-.22a.86.86,0,0,0-.16-.44.86.86,0,0,1-.13-.83,1,1,0,0,0-.11-.86v-.09a2.34,2.34,0,0,0-.06-1l-.05-.29,0-.28c-.05-.25-.08-.44-.11-.57a3.35,3.35,0,0,1,0-1.37v-.06l0-.09a1.32,1.32,0,0,1,0-.75,1,1,0,0,0,0-.24l0-.11,0-.13v-.48l0-.47,0-.15,0-.13v-.09l0-.06a.16.16,0,0,1,0-.14.36.36,0,0,0,.07-.24v-.11l0-.13v-.33l0-.35a3.1,3.1,0,0,1,.06-.68,2.4,2.4,0,0,0,0-.77l-.05-.4,0-.37V24c0-.09,0-.17-.05-.25l-.11-.06a.21.21,0,0,0-.13-.05H200l-.24,0a1.14,1.14,0,0,1-.48-.09.68.68,0,0,1-.4-.77l0-.09,0-.11-.05-.06,0-.05a.8.8,0,0,1,.09-.5.86.86,0,0,1,.37-.4.16.16,0,0,0,.07-.07,1,1,0,0,1,1-.48h.13a.78.78,0,0,1,.38-.13h.42l.54,0,.58,0,.28.09.13.07.16,0a3.65,3.65,0,0,0,.72.07l.35,0h.33a2.82,2.82,0,0,0,.68,0,1.4,1.4,0,0,1,.53-.05h.27l.26,0a1.51,1.51,0,0,1,.55,0l.26.05.27,0,.44,0,.44-.05.35-.06.37-.07.26,0h.27L210,21l.07,0,.06,0a1.69,1.69,0,0,0,.27.11l.31,0a1.37,1.37,0,0,1,.57.18.93.93,0,0,0,.41.17l.22,0,.25.07a.3.3,0,0,1,.19.11,1.78,1.78,0,0,0,.82.4l.15,0,.15,0a1.13,1.13,0,0,1,.29.2,1,1,0,0,0,.31.27l.15.11.18.13.41.37.42.4a3,3,0,0,0,.95.61,1.8,1.8,0,0,1,.41.27l.4.3a1.58,1.58,0,0,1,.48.68l.13.4.14.4.22.61.22.64c0,.09,0,.21,0,.37l0,.18.05.19.13.6c.07.25.12.44.15.59s0,.34.05.57v.55l0,.66v1.36a2.14,2.14,0,0,1-.15.68,2.46,2.46,0,0,0-.09.31l0,.16-.05.15-.2.55a2.59,2.59,0,0,1-.24.55c-.29.51-.66,1.1-1.1,1.76a.73.73,0,0,1-.22.17l-.13.07-.11.06h0l-.05,0a1.06,1.06,0,0,1-.24.22l-.3.19a1.37,1.37,0,0,0-.51.51.36.36,0,0,1-.2.15.8.8,0,0,1-.26,0,.86.86,0,0,0-.44.15l-.18.15-.17.11-.24.14-.27.11-.48.22-.51.21-.55.18-.57.15-.35.11-.37.09-.38,0-.39,0h-.18l-.2,0a.57.57,0,0,0-.33.16l-.13,0-.13,0a.62.62,0,0,0-.33,0l-.15.06-.16.05-.26.06-.26.11a1,1,0,0,1-.57,0,.47.47,0,0,0-.53.28,2.88,2.88,0,0,0-.2,1.85c.07.5.12.89.13,1.19l0,.59,0,.61-.07.55a3.14,3.14,0,0,1-.09.55.81.81,0,0,0,0,.35v.33l0,.38a1,1,0,0,1,0,.35l-.07.44-.1.42v.17a3.45,3.45,0,0,1,.3,1.74l0,.17v.2a.15.15,0,0,0,.05.11.16.16,0,0,0,.1.07,7.27,7.27,0,0,0,.86.06l1,0h.44l.07,0a.62.62,0,0,0,.24.08h.13l.13,0a.87.87,0,0,1,.6.33,4.25,4.25,0,0,1,.61.83.67.67,0,0,1,.09.26l.06.27a.72.72,0,0,1-.19.33c-.13.16-.23.25-.29.26l-.09,0-.08,0-.2,0a.48.48,0,0,0-.18,0,.35.35,0,0,1-.37,0c-.06-.07-.18-.09-.37,0a.64.64,0,0,0-.38.17s0,0-.09.05l-.06,0a.48.48,0,0,0-.35-.13h-.2l-.18,0-.13,0-.15-.06-.07,0h-.09a.1.1,0,0,1-.13,0l-.06,0-.09,0-.27-.11-.26-.09a2.69,2.69,0,0,0-.55-.13,5.49,5.49,0,0,0-.79,0l-.81.07a2,2,0,0,0-1,.31h-.2l-.06,0L202,53.13h-.08a.73.73,0,0,0-.51-.07l-.26,0a1.1,1.1,0,0,1-.27,0l-.08,0-.11,0-.18.06-.2,0-.39,0-.38,0c-.51,0-.69-.28-.55-.77a.26.26,0,0,0,0-.11l-.09-.11-.06,0-.09-.07c-.07,0-.11-.08-.11-.13l0-.18,0-.19a.52.52,0,0,1,.05-.33.79.79,0,0,1,.7-.31h.33l.35,0a1.12,1.12,0,0,0,.66-.13l.13,0,.14,0a.58.58,0,0,0,.28,0,1.55,1.55,0,0,1,.9-.18l.11,0h.11Zm-.66-22.63,0-.46-.13,0,.05.46Zm-.07-1a.52.52,0,0,0,.09.33l0-.31,0-.29A.36.36,0,0,0,201.48,26.72Zm1.3,13.55a3.1,3.1,0,0,0-.16-1.67A1.84,1.84,0,0,0,202.78,40.27Zm-.09-2.11h-.13v.31h0l.09,0Zm1.12-2.7,0,.24v.24l0,.44c0,.18,0,.33,0,.44s.06.25.24.27l0-.07v0a3.57,3.57,0,0,1,0-1.28.36.36,0,0,0-.05-.13l-.06-.13Zm.42-5.71c0-.48-.14-.76-.29-.81v.94a3,3,0,0,0,.2,1A2.13,2.13,0,0,0,204.23,29.75Zm.11,11,0-.06V40a4.47,4.47,0,0,0,0-.6,2.87,2.87,0,0,1-.11-.72l0-.07,0,0,0,0H204l0,0s0,0,0,.05a1,1,0,0,1,.06.74,2.17,2.17,0,0,0,0,.49l0,.24,0,.24.05.2.06.17Zm.11,1,0-.31,0-.33,0-.06-.06-.09-.05.09a.08.08,0,0,0,0,.09l0,.3.06.31Zm7.78-16.37,0-.15,0-.16,0-.17-.09-.2-.05-.13-.06-.13a.64.64,0,0,1-.07-.24.45.45,0,0,0-.22-.4l-.13-.07-.15,0a.39.39,0,0,1-.2-.24s0,0-.09,0l-.06,0-.07,0-.18,0h-.19l-.44-.07-.47-.06h-.41a1.45,1.45,0,0,1-.4-.05,5.1,5.1,0,0,0-2.28-.08l-.29.06-.28,0a1.24,1.24,0,0,0-.66.25.83.83,0,0,1-.42.13c-.22,0-.33.09-.33.28l0,1.34,0,.25,0,.22,0,.46v.46l.06.66.12.66V28l0,.18,0,.28.07.29a2.44,2.44,0,0,1,0,.57v.51a2.62,2.62,0,0,0,0,.52,2.51,2.51,0,0,1,0,.44l0,.44,0,.13,0,.11a.63.63,0,0,1,.07.25l0,.63,0,.66a6.68,6.68,0,0,0,.16,1.3l.06.39.07.4.11.66V36l.2.84a.23.23,0,0,0,.31.19l.28-.06.29,0a.28.28,0,0,1,.13.06l.06.07.09,0,.33.11.35.11a1.9,1.9,0,0,0,.73.07l.15-.05h.4l.24.05a2,2,0,0,0,.48-.05,2.7,2.7,0,0,1,1.39,0l.15,0h.18a.49.49,0,0,0,.3,0l.16-.07.17-.06a.56.56,0,0,1,.36,0h.08c.05,0,.08,0,.09-.05l.16-.19a.75.75,0,0,0,.08-.2,3,3,0,0,0,0-1.43l0-.13,0-.16V34.6l-.05-.17,0-.18a1.8,1.8,0,0,1,0-.37l0-.73,0-.7V32l0-.44,0-.13,0-.13c0-.11,0-.18,0-.22a1.4,1.4,0,0,0,.08-.49v-.5l0-.59-.07-.62-.11-1.05v-.25l0-.74c0-.3,0-.55-.07-.75a.47.47,0,0,1,.2-.53A.45.45,0,0,1,212.23,25.33Zm-7.34,11.19s0-.11,0-.33,0-.35-.08-.38h-.14a.21.21,0,0,0,0,.2l0,.18.09.19,0,.09,0,.13Zm4.33-14.42.5-.06,0-.09-.11,0-.13,0a.24.24,0,0,0-.24.09Zm2.28,16.44-.2,0-.2.05-.37.06C211,38.85,211.21,38.8,211.5,38.54Zm1.32-14.75,0,.09a.79.79,0,0,0,.11.24h0l0,0s.07,0,.07,0a.71.71,0,0,0,0-.29l-.07,0h-.07l0,0,0-.18,0-.2,0-.11,0-.11-.13.05-.16.06.31.49Z"/><path class="cls-1" d="M222.66,30V29.9l.05-.11,0-.13.07-.17.06-.2a.56.56,0,0,0-.09-.4l0,0v-.07a1,1,0,0,0,.07-.59l-.07-.29,0-.28,0-.31,0-.29,0-.68,0-.68,0-.22.07-.22,0-.09,0,0a.49.49,0,0,1-.24-.35l-.07-.2a.39.39,0,0,0-.13-.15l0-.05,0,0c-.05-.25-.3-.37-.72-.35a2.87,2.87,0,0,0-1.25.37l-.14.07-.13,0a.32.32,0,0,1-.3-.06.12.12,0,0,0-.09,0h-.09a.41.41,0,0,1-.33.05l-.15-.05-.16,0c-.07,0-.14-.1-.22-.26a.68.68,0,0,1-.11-.36l0-.61a5.18,5.18,0,0,1,.06-.64,1,1,0,0,1,.38-.57.81.81,0,0,1,.85,0,.9.9,0,0,0,.42,0l.22,0,.24,0,1.19-.05.13,0,.11,0a.37.37,0,0,1,.24,0,1.88,1.88,0,0,0,.66.07l.31,0,.33,0a.76.76,0,0,0,.42-.13,2,2,0,0,1,.55-.26l.28-.07.31-.07a.4.4,0,0,1,.48.14l.07,0s0,0,0,0a1,1,0,0,1,.53.07l.24.08a1,1,0,0,0,.26.05l.55-.07.55,0,1.15-.09.08,0,.09,0,.16-.05.17,0a.36.36,0,0,1,.35.11.89.89,0,0,0,.31.11l.15,0,.16.05a.4.4,0,0,1,.22.61,2.66,2.66,0,0,1-1.76,1.52l-.64.13h-.06l-.05,0a.65.65,0,0,1-.41.29l-.25.06-.22.09a.15.15,0,0,1-.15,0h-.15l-.16.07-.13.09a.92.92,0,0,0-.17.24l0,0v0a.19.19,0,0,1,0,.08,1.55,1.55,0,0,0-.33,1.17l0,.7V27l0,.17,0,.42-.06.42a2.77,2.77,0,0,0-.05.83l.05.44.06.42,0,.11.06.11,0,0v0l-.14.82,0,.11V31l0,.24,0,.26a1,1,0,0,1-.11.49.49.49,0,0,0,0,.15v.61a1.56,1.56,0,0,1,0,.42,2,2,0,0,0,0,1c0,.1,0,.25,0,.44l0,.22,0,.22a.87.87,0,0,0,.13.33l.09.15.09.16,0,0,.05,0a.35.35,0,0,1,.32.07l.14.11a.44.44,0,0,0,.15.08,2.34,2.34,0,0,1,.31.16l.33.15a1,1,0,0,0,.72.09,2.08,2.08,0,0,1,.57,0l.31,0,.29,0h.41l.4,0a1.51,1.51,0,0,0,.66-.06l.33-.13.31-.14h.19l.11,0,.11,0c.11,0,.18.06.22,0a3.66,3.66,0,0,1,1.43,0,3.21,3.21,0,0,0,.44,0l.22,0,.22,0,.2,0,.2,0a1,1,0,0,1,.39,0,2.11,2.11,0,0,1,.49.13l.5.18.11,0h.09a2.58,2.58,0,0,0,1.1-.4.64.64,0,0,1,.2-.08l1.62-.4H240l.18,0a.28.28,0,0,0,.13-.09.12.12,0,0,0,.07-.11V35l0-.33,0-.72,0-.75,0-.44,0-.44,0-.35,0-.35v-.16l0-.15,0-.22-.07-.17,0-.16,0-.13s0-.07,0-.09a2.22,2.22,0,0,0,.17-.9l0-.46,0-.46,0-1.06,0-.15,0-.15,0-.18v-.33a.17.17,0,0,0,0-.13l-.2-.35-.19-.33,0-.07,0-.06a.2.2,0,0,1,0-.11.74.74,0,0,0,0-.53l-.13-.22-.11-.24-.17-.38-.16-.37c-.09-.21-.27-.28-.55-.22h-.2l-.21,0h-.31q-.08,0-.09,0l-.29-.18-.3-.17c-.22-.14-.41-.25-.55-.36a.7.7,0,0,1-.29-.59.85.85,0,0,1,.35-.57l.14-.11.1-.13a.68.68,0,0,1,.33-.18l.29,0h.83l.66,0h.69l.72.06.72.07.38,0,.37,0a2.86,2.86,0,0,0,.75-.09,1,1,0,0,1,.4,0l.21,0,.2,0a3.58,3.58,0,0,1,.68.13l.38.13.37.14h.13a.23.23,0,0,0,.13,0,1,1,0,0,1,.86-.11,1,1,0,0,1,.57.62.27.27,0,0,1,0,.22.36.36,0,0,0,0,.46,1.1,1.1,0,0,1,.11.77.67.67,0,0,1-.57.53l-.11,0-.13,0a.43.43,0,0,1-.27,0s-.08,0-.17,0l-.11,0h-.11l-.11,0-.33-.18a2,2,0,0,0-.33-.13.27.27,0,0,0-.18,0l-.17.06a.67.67,0,0,0-.24.16l-.14.06-.13.11c0,.16.06.46.13.88v0l-.13.83-.09.84a1.78,1.78,0,0,0,0,.28l.06.31,0,.44v.42a3.31,3.31,0,0,0,.25,1.49,1,1,0,0,1,0,1,1,1,0,0,0-.16.62,1.35,1.35,0,0,0,0,.29l0,.3,0,.29a.91.91,0,0,1-.06.26,3.62,3.62,0,0,0-.25.84l-.06.44,0,.44-.06.3-.07.31,0,.38,0,.39V37.4a.77.77,0,0,1,0,.39,2.65,2.65,0,0,0-.06.62v.33l0,.3a1.37,1.37,0,0,0,0,.27l.06.28.09.4.07.42.11,1,0,.31,0,.3,0,.86,0,.77c0,.31,0,.57.07.79a1.68,1.68,0,0,1,0,.55l0,.26,0,.29,0,.2.05.19c0,.12,0,.27,0,.44l0,.42a1.16,1.16,0,0,0,.08.42.62.62,0,0,0,.38.33c.17.07.26.27.26.59l0,.13.05.13,0,0a.63.63,0,0,0,.2.46l.15.22a.63.63,0,0,1,.11.24l0,.11.07.13a.42.42,0,0,0,.24.2.35.35,0,0,1,.18.11l.17.13a.6.6,0,0,0,.92,0l.14-.13.11-.13a1.73,1.73,0,0,1,.26-.24.67.67,0,0,1,.24-.11l.24-.07.09,0a.09.09,0,0,1,.09,0l.26.3a1.5,1.5,0,0,1,.24.33.37.37,0,0,1,.05.2c0,.06,0,.13-.05.22a1.41,1.41,0,0,0,.05.86.48.48,0,0,1,0,.17,1.34,1.34,0,0,1-.07.18l-.11.18-.11.17a.47.47,0,0,1-.33.2l-.08,0h-.09l-.55,0h-.53l-.66,0-.64.09-1.18.11h0a.6.6,0,0,0-.37-.09l-.18.07-.15.06-.17,0-.18,0a1.23,1.23,0,0,1-.35.05h-.2l-.18,0a4.34,4.34,0,0,1-.9-.11l-.19-.06-.18-.09-.26-.09a.77.77,0,0,0-.25,0c-.55,0-1.18,0-1.86,0l-.33.05-.33.06a1.19,1.19,0,0,1-1.21-.52,1,1,0,0,1-.15-.29l-.11-.31a.3.3,0,0,1,0-.13l0-.07,0-.06a.41.41,0,0,1,.11-.38l.16-.08.17-.11.09-.05.11,0,.15-.09.16-.06.17-.09.18,0a7.3,7.3,0,0,1,1,.2.69.69,0,0,0,.61-.06l.31-.18.29-.17.08-.09.07-.13c0-.16.09-.36.13-.57a5.34,5.34,0,0,0,.09-.53l0-.29,0-.28,0-.84a6.67,6.67,0,0,0,0-.83l-.07-.47a3.84,3.84,0,0,1,0-.48l0-.24,0-.26a.78.78,0,0,0-.2-.51l0-.09a.1.1,0,0,1,0-.06,1.28,1.28,0,0,0,.06-.73l-.06-.35a.8.8,0,0,1,0-.35,1,1,0,0,0,0-.33l-.05-.18,0-.15,0-.53,0-.53v-.19l0-.2v-.31l0-.24,0-.22,0-.11,0-.11a.31.31,0,0,1,.07-.2c.1-.14.05-.25-.16-.33a.65.65,0,0,1-.15-.11l-.13-.11-.18-.13-.2-.09-.39-.13-.38-.09h-.85l-.84,0h-.15l-.68-.11a5.34,5.34,0,0,0-.68-.09l-.38,0-.39,0a2.1,2.1,0,0,0-.77,0l-.35.06-.36.07a5.19,5.19,0,0,0-.7.11,4.17,4.17,0,0,1-.7.13l-.73.05a3.18,3.18,0,0,0-.9.13.66.66,0,0,1-.37,0,2.59,2.59,0,0,1-.35-.09,2.8,2.8,0,0,0-1-.11l-.35,0-.35,0c-.25,0-.47.07-.66.11q-.51.14-.39.84l.08.57.11.57.14.46.13.46a.84.84,0,0,1,0,.48l0,.25,0,.26-.05.35,0,.38a1.05,1.05,0,0,0,.2.72.38.38,0,0,1,.08.22l0,.11v.13l.13.64.11.66a1,1,0,0,1,0,.31l0,.15,0,.15v1.08a6.56,6.56,0,0,0,.07,1.06l0,.19.07.2a4.11,4.11,0,0,1,.08.42l0,0,0,.07a.14.14,0,0,1,0,.15.11.11,0,0,0,0,.07l0,.06.15.27.09.15.09.15.13,0H228a.89.89,0,0,0,.38-.15.35.35,0,0,1,.3,0l.2,0,.18.06a.32.32,0,0,1,.13.13l.07.09,0,.11.26.42.27.42a.79.79,0,0,0,.13.13l.18.15a1,1,0,0,1-.49,1,1.85,1.85,0,0,1-1,.5l-.13,0-.14.06,0,.07-.75-.38-.08,0h-.62a2.79,2.79,0,0,1-.53,0,1.81,1.81,0,0,1-.72-.24.86.86,0,0,0-.59-.11l-.29.06-.29.07-.26,0a1.38,1.38,0,0,0-.26.07l-.27.13-.26.15c-.1.05-.22.09-.35.14h-.18a1.2,1.2,0,0,1-.57,0l-.29-.09-.26-.07-.55-.15-.55-.09a1.49,1.49,0,0,0-.41,0l-.44.09c-.18,0-.3,0-.36-.06a.24.24,0,0,0-.13-.11l-.09,0-.08,0a1,1,0,0,1-.47-1.3.74.74,0,0,1,.77-.57,2.82,2.82,0,0,0,.55-.06,1,1,0,0,1,.55.08l.24.11a.68.68,0,0,0,.29.07l.24,0,.24,0a.67.67,0,0,0,.49-.19,1.64,1.64,0,0,1,.39-.27l.24-.11.22-.13c.4-.2.49-.54.29-1a.44.44,0,0,1,0-.42.17.17,0,0,0,0-.13l0-.07,0-.06,0-.07,0,0s0-.07,0-.09a.76.76,0,0,0,.06-.44l0-.24V47.7l0-.07,0-.06.14-.44v-.07l0,0a.41.41,0,0,0,.06-.4l-.08-.17-.07-.2,0-.15,0-.18,0-.13,0-.16a.56.56,0,0,0,0-.28,4.56,4.56,0,0,1,0-1.47.54.54,0,0,0,0-.18l0-.11V43.5l0-.37v-.4l-.05-.43,0-.44v-.58L223,41l-.06-.29,0-.08,0-.09,0-.42,0-.42a.56.56,0,0,0-.11-.33,1.33,1.33,0,0,1-.07-.3l0-.16,0-.17-.07-.44,0-.07v0a.63.63,0,0,0,.11-.51l0-.24a1.84,1.84,0,0,1,0-.26l.07-.22,0-.22a1.66,1.66,0,0,1,.13-.47.91.91,0,0,0,0-1l0,0a.08.08,0,0,1,0,0,.44.44,0,0,0,.07-.31l0-.16,0-.15a2.59,2.59,0,0,0-.22-1.25,2.13,2.13,0,0,1-.16-.7l0-.64,0-.64,0-.07,0-.06,0-.18,0-.19a1.23,1.23,0,0,1,.09-.44l.06-.14.11-.13ZM223.92,32l.08.41.05.42c.2-.1.3-.36.28-.77a1.48,1.48,0,0,0-.37-.94A2.1,2.1,0,0,0,223.92,32ZM241.1,25a.57.57,0,0,0-.27.49,1,1,0,0,0,.22.68A5.72,5.72,0,0,0,241.1,25Zm.15,9.76a1.31,1.31,0,0,0,.24-.94c0-.49-.08-.79-.24-.91Zm1.08-7.69a.25.25,0,0,0-.07.15.12.12,0,0,0,0,.11l.09.14,0,0,.06,0c.05,0,.07,0,.07,0l0-.13v-.14a.27.27,0,0,0-.15-.22Z"/><path class="cls-1" d="M253.31,23.82h-.21a1.79,1.79,0,0,0-.4.06l-.31.09-.31.13a1.32,1.32,0,0,1-1.23-.31.46.46,0,0,1-.17-.17.4.4,0,0,1,.06-.29,1.64,1.64,0,0,0,.29-.5.25.25,0,0,0,0-.16l0-.06,0-.09a.83.83,0,0,1,.11-.55,1.6,1.6,0,0,1,.36-.4l.17-.15.2-.13a.57.57,0,0,1,.5-.07l.27.05.22.09a1.35,1.35,0,0,0,1.23-.11,2.66,2.66,0,0,1,1.43-.18l.28,0,.31.09a4.61,4.61,0,0,0,.59.11,6.75,6.75,0,0,0,.68,0l.66,0h.35a1,1,0,0,1,.33,0,3.05,3.05,0,0,0,1.39-.07,1.45,1.45,0,0,1,1.4.33.2.2,0,0,1,.09.13.37.37,0,0,1,.05.16l0,.2,0,.22a.59.59,0,0,1-.29.37,2.69,2.69,0,0,0-.72.77,1,1,0,0,1-1.14.37.52.52,0,0,0-.46.07,2.43,2.43,0,0,1-.36.2l-.35.13c-.28.1-.4.27-.37.5a2.29,2.29,0,0,0,.2.77.86.86,0,0,1,.11.38v.39l0,.44-.06.42v.09a1.57,1.57,0,0,1,0,.83l-.11.42a1.19,1.19,0,0,0-.07.39v.58l0,.54,0,.55a1.77,1.77,0,0,0,.07.4l.09.39,0,.33a.9.9,0,0,1,0,.33,1.32,1.32,0,0,0,0,.86.68.68,0,0,1,0,.15.22.22,0,0,1,0,.16.74.74,0,0,0-.13.46v.88l-.05.57-.07.35-.06.38a1,1,0,0,0,.09.74.23.23,0,0,1,0,.2.63.63,0,0,1-.09.22.82.82,0,0,0-.13.48v.24l0,.25,0,.61,0,.2a.28.28,0,0,0,0,.18,1.59,1.59,0,0,1,0,.39l0,.2-.05.2a1.44,1.44,0,0,0,.11.83.72.72,0,0,1,.09.37v.18l0,.18v.13s0,.07,0,.09a.58.58,0,0,1,.11.39l-.05.2,0,.2,0,.33,0,.35v1.27l.07.57.06.58.07.35.05.37a2.86,2.86,0,0,1-.05.73,2.26,2.26,0,0,0,0,.37l.05.18,0,.19c.17.75.33,1.36.46,1.83a.63.63,0,0,0,.11.24l.09.09.11.08a.23.23,0,0,0,.15.11c.06,0,.12,0,.18-.08v0l0,0a1,1,0,0,0,.39,0l.38-.07a1.26,1.26,0,0,1,.75.09h0a.45.45,0,0,0,.31.26l.17.07.2.05q.15.06.24.39a1.65,1.65,0,0,1,0,1.1l-.09.15-.09.14-.09.1a.37.37,0,0,0,0,.11.48.48,0,0,1-.5.49.53.53,0,0,0-.31.11,1.05,1.05,0,0,1-1.12.09.41.41,0,0,0-.27,0l-.15,0-.13,0-.22,0-.2,0-.07,0h-.08a6.4,6.4,0,0,1-1.78,0,1.27,1.27,0,0,0-1.08.3,1.28,1.28,0,0,1-.26.16,4,4,0,0,1-1.37.17l-.48-.08-.5-.09-.09,0a.08.08,0,0,0-.07,0,1,1,0,0,1-.68.11l-.33-.05a1.11,1.11,0,0,0-.35,0,.94.94,0,0,1-.57-.2l-.2-.19-.24-.18a.34.34,0,0,1-.11-.46.78.78,0,0,0,0-.16,1,1,0,0,1,.59-.94l.18-.09L251,51a.44.44,0,0,0,.2-.33l.05,0,.06,0a1.52,1.52,0,0,1,.73-.24l.37-.05a1.48,1.48,0,0,0,.37-.11l.2-.09.2-.06a1,1,0,0,0,.33-.24.4.4,0,0,0,.11-.27l0-.17v-.16l.07-.72,0-.73,0-.83,0-.81,0-.05,0,0a.69.69,0,0,0,.11-.62l-.11-.28a.85.85,0,0,1,0-.31l.13-.88,0-.07,0-.06a1.08,1.08,0,0,1,0-.59l.11-.29.11-.26a2.27,2.27,0,0,0,.09-.49v-.5l.08-1v-.09l0-.11,0-.28v-.31a2.23,2.23,0,0,0,0-.6.94.94,0,0,1,.05-.48l.06-.22,0-.22,0-.17,0-.18v-.35l0-.35a2.44,2.44,0,0,1,.08-.71,1.2,1.2,0,0,0,0-.52l0-.27,0-.28.05-.46.06-.49,0-.17,0-.2a.87.87,0,0,0,0-.35,3.68,3.68,0,0,1,.13-1.43.59.59,0,0,0,0-.29A2.28,2.28,0,0,1,254.7,31a.92.92,0,0,0,0-.33v-.35l0-.75.06-.74a3.78,3.78,0,0,0-.06-1.06c0-.11,0-.27,0-.46v-.24l0-.24-.09-.42-.08-.42-.05-.3,0-.31,0-.57v-.57a.12.12,0,0,0,0-.11.13.13,0,0,0-.06-.09l-.42-.16-.18-.06-.17-.05Z"/><path class="cls-1" d="M267.86,49l.2-.76.13-.51.11-.48a5.54,5.54,0,0,0,.11-1,3.82,3.82,0,0,1,.07-.69l.11-.65.19-1.56.05-.31a1.07,1.07,0,0,1,.06-.27,1.51,1.51,0,0,0,.05-1l0-.13,0-.14a.43.43,0,0,0-.11-.19.88.88,0,0,1-.11-1.1c0-.05,0-.11.05-.18v-.2l-.05-1v-1l0-.57,0-.57,0-.2,0-.2c0-.16,0-.29,0-.39v-.07a.49.49,0,0,0,.15-.53l-.06-.26a.71.71,0,0,1,0-.29,2.77,2.77,0,0,0,0-.54v-.58a2.15,2.15,0,0,0-.06-.55.83.83,0,0,1,0-.68,1.27,1.27,0,0,0,0-.22.93.93,0,0,0,0-.22,3,3,0,0,1,0-1.67,1.92,1.92,0,0,0-.11-1,1,1,0,0,1-.05-.33l0-.17v-.18l0-.88-.06-1.4-.07-1a.77.77,0,0,0-.59-.75l0,0a.66.66,0,0,0-.55-.33l-.31,0-.31,0a2.07,2.07,0,0,1-1.16-.3c-.22-.12-.34-.23-.35-.33s.07-.24.26-.44l.11-.09c.13-.13.19-.23.18-.29s-.08-.11-.22-.22a1.32,1.32,0,0,1-.4-.33c-.16-.16-.14-.3.07-.44a2.57,2.57,0,0,1,1.51-.3,1.61,1.61,0,0,1,.55.11l.26.11.27.08.37.11a1.16,1.16,0,0,0,.35.11.29.29,0,0,0,.16-.06l.09-.07.08,0,.62-.07.59-.06.24-.05.25,0a2.46,2.46,0,0,1,.46-.07,3.05,3.05,0,0,0,.52-.06l.25-.05.26,0a.76.76,0,0,1,.35.09l.18.07.17,0a1.31,1.31,0,0,1,1,.46.59.59,0,0,0,.44.2h.24l.22,0a2,2,0,0,0,.44.05l.46,0,.82,0q.72,0,.72.66a1.17,1.17,0,0,1-.53,1,.54.54,0,0,1-.17.07H276l-.51,0L275,24h-.15a.14.14,0,0,0-.09,0,.5.5,0,0,1-.48.14l-.51,0-.51,0a.43.43,0,0,0-.3.15.43.43,0,0,0-.16.33l.09.53.09.53,0,.11v.13l-.11.46a2.27,2.27,0,0,0-.11.46c0,.12,0,.26,0,.42l.05.44,0,.11a.51.51,0,0,1,0,.09,1.15,1.15,0,0,0-.11.54l0,.29,0,.26c0,.05,0,.11,0,.2v.2c0,.59-.09,1-.13,1.34-.07.47-.16,1-.26,1.45l-.11.35-.13.37a3.58,3.58,0,0,0-.18,1.74,1.49,1.49,0,0,1,0,.46.72.72,0,0,1-.2.46.37.37,0,0,0,0,.2l0,.13v.13l0,1.35v.37l0,.37V39l0,.94a4.36,4.36,0,0,0,.07.68l.07.33.08.35A4.25,4.25,0,0,1,272,42v.68l0,.33,0,.3,0,1v1l0,.33.05.33,0,.46,0,.46.08.44.09.46,0,.33,0,.35a1.36,1.36,0,0,0,.18.42l.31.44.13.2.13.2.11,0,.11.07.2.11.24.13.26.11a1.32,1.32,0,0,0,.6.11c.28,0,.66,0,1.14,0l1.14,0,.53,0,.53,0,.53,0,.52,0,1,0h.59l.11,0,.13,0,.07,0,0,0,.64-.31.18-.13a.77.77,0,0,1,.17-.11l.9-.33a.41.41,0,0,0,.31-.24l.09-.18,0-.19a2.36,2.36,0,0,0,0-1.15,1.49,1.49,0,0,1,0-.17l0-.09v-.09l0-.74v-.14l0-.11A.37.37,0,0,0,283,46c-.08,0-.11-.16-.08-.37a.94.94,0,0,1,.19-.48.79.79,0,0,1,.88-.27l.33.11.35.14a2,2,0,0,0,.66.11.72.72,0,0,1,.53.19l.15.2.16.2a.32.32,0,0,1,.06.22v.13l0,.13a.73.73,0,0,1-.09.22l-.08.22a5.83,5.83,0,0,0-.14,1.21l0,.44v.42a6.16,6.16,0,0,0,0,.88s0,.06,0,.11l0,.13v.39a3.87,3.87,0,0,0,0,.51l.05.5a1.47,1.47,0,0,1-.27,1,1.58,1.58,0,0,1-.68.46,4,4,0,0,1-1.51.22,1.15,1.15,0,0,1-.29-.09l-.13-.06-.16,0-.37,0-.37,0-.35-.07-.38,0-.15,0a.47.47,0,0,0-.18,0,2.35,2.35,0,0,1-1.54.22h-.06l-.09,0-1,.13-.11,0c-.06,0-.1,0-.11,0a.83.83,0,0,0-.55,0l-.29.06a.57.57,0,0,1-.26,0A.25.25,0,0,0,277,53l0,0-.07,0a1.31,1.31,0,0,1-.53.06l-.28-.06-.27-.07a.65.65,0,0,0-.28,0l-.15,0-.16,0-.83.08c-.13-.23-.38-.29-.73-.17a2.2,2.2,0,0,1-.42.09l-.44,0h-.11l-.94.11-.94.11-.27,0-.15-.05-.18,0a.75.75,0,0,1-.9-.18l-.11.14-.11.11a1,1,0,0,0-.75.06,1.78,1.78,0,0,1-.37.09l-.2,0-.17,0-.31.09-.31,0c-.19,0-.31,0-.37-.13a.52.52,0,0,0-.16-.18l-.17-.17a.81.81,0,0,1-.55.06,3.06,3.06,0,0,1-.48-.17L265,53l-.22-.14c-.05,0-.08,0-.11-.11l-.09-.15-.05-.09a.09.09,0,0,0-.06-.06,1.5,1.5,0,0,1-.49-.6.66.66,0,0,1,.05-.44c.07-.2.17-.32.29-.35a2.23,2.23,0,0,0,.5-.28,1.32,1.32,0,0,1,1-.25.65.65,0,0,0,.62-.15.61.61,0,0,1,.22-.15l.11,0,.13-.06.35-.18.37-.2Zm1.3-.13,0-.77-.11,0,0,.2-.07.2a.45.45,0,0,0,.09.39Zm.94-22.06.18-.72.2-1,0-.16v-.17s0-.06-.07-.09l-.08-.06-.09.06,0,.09c-.11.41-.19.73-.24,1s-.06.51-.11.87a.21.21,0,0,0,.05.11l.06.09Zm1.39,1a1.28,1.28,0,0,0,.26.79l0-.44,0-.46a1.77,1.77,0,0,0-.22-.88A2.19,2.19,0,0,0,271.49,27.82Z"/><path class="cls-1" d="M292.21,49l.19-.76.14-.51.11-.48a5.54,5.54,0,0,0,.11-1,4.82,4.82,0,0,1,.06-.69l.11-.65.2-1.56,0-.31a1.76,1.76,0,0,1,.07-.27,1.45,1.45,0,0,0,0-1l0-.13,0-.14a.56.56,0,0,0-.11-.19.88.88,0,0,1-.11-1.1c0-.05,0-.11,0-.18v-.2l0-1v-1l0-.57-.05-.57,0-.2,0-.2a3,3,0,0,1,0-.39v-.07a.53.53,0,0,0,.15-.53L293,35a1.4,1.4,0,0,1,0-.29,2.68,2.68,0,0,0,.05-.54v-.58a1.75,1.75,0,0,0-.07-.55.83.83,0,0,1,0-.68.69.69,0,0,0,0-.22.63.63,0,0,0-.05-.22,3,3,0,0,1,0-1.67,1.83,1.83,0,0,0-.11-1,1,1,0,0,1,0-.33l0-.17v-.18l0-.88-.07-1.4-.06-1a.78.78,0,0,0-.6-.75l0,0a.64.64,0,0,0-.55-.33l-.3,0-.31,0a2.12,2.12,0,0,1-1.17-.3c-.22-.12-.33-.23-.35-.33s.07-.24.27-.44l.11-.09c.13-.13.19-.23.17-.29s-.07-.11-.22-.22a1.43,1.43,0,0,1-.39-.33c-.17-.16-.14-.3.06-.44a2.6,2.6,0,0,1,1.52-.3,1.66,1.66,0,0,1,.55.11l.26.11.26.08.38.11a1.16,1.16,0,0,0,.35.11.29.29,0,0,0,.15-.06l.09-.07.09,0,.61-.07.6-.06.24-.05.24,0a2.58,2.58,0,0,1,.46-.07,3.15,3.15,0,0,0,.53-.06l.24-.05.27,0a.76.76,0,0,1,.35.09l.17.07.18,0a1.31,1.31,0,0,1,1,.46.59.59,0,0,0,.44.2h.24l.22,0a2,2,0,0,0,.44.05l.46,0,.81,0c.49,0,.73.19.73.66a1.19,1.19,0,0,1-.53,1,.52.52,0,0,1-.18.07h-.22l-.5,0-.48,0h-.16l-.09,0c-.08.12-.25.16-.48.14l-.5,0-.51,0a.45.45,0,0,0-.31.15.38.38,0,0,0-.15.33l.09.53.08.53,0,.11v.13l-.11.46a2.27,2.27,0,0,0-.11.46,3.25,3.25,0,0,0,0,.42l0,.44,0,.11a.23.23,0,0,1,0,.09,1,1,0,0,0-.11.54l0,.29,0,.26a.83.83,0,0,0,0,.2v.2c-.05.59-.09,1-.13,1.34-.08.47-.16,1-.27,1.45l-.11.35-.13.37a3.69,3.69,0,0,0-.17,1.74,2.59,2.59,0,0,1,0,.46.77.77,0,0,1-.2.46.37.37,0,0,0,0,.2l0,.13v.13l-.05,1.35v.37l0,.37V39l0,.94a3.41,3.41,0,0,0,.07.68l.06.33.09.35a4.41,4.41,0,0,1,0,.69v.68l0,.33,0,.3,0,1v1l0,.33,0,.33.05.46,0,.46.09.44.09.46,0,.33,0,.35a1.36,1.36,0,0,0,.18.42l.3.44.14.2.13.2.11,0,.11.07.2.11.24.13.26.11a1.28,1.28,0,0,0,.59.11c.28,0,.66,0,1.15,0l1.14,0,.53,0,.52,0,.53,0,.53,0,.94,0h.6l.11,0,.13,0,.06,0,.05,0,.64-.31.17-.13a.62.62,0,0,1,.18-.11l.9-.33a.42.42,0,0,0,.31-.24l.08-.18,0-.19a2.36,2.36,0,0,0,0-1.15.59.59,0,0,1,0-.17l0-.09v-.09l0-.74v-.14l0-.11a.32.32,0,0,0-.15-.22c-.09,0-.12-.16-.09-.37a1,1,0,0,1,.2-.48.78.78,0,0,1,.88-.27l.33.11.35.14a2,2,0,0,0,.66.11.73.73,0,0,1,.53.19l.15.2.15.2a.28.28,0,0,1,.07.22v.13l0,.13c0,.06-.05.13-.09.22l-.09.22a5.94,5.94,0,0,0-.13,1.21l0,.44v.42a5,5,0,0,0,0,.88.12.12,0,0,1,0,.11l0,.13v.39a4.26,4.26,0,0,0,0,.51l0,.5a1.41,1.41,0,0,1-.26,1,1.71,1.71,0,0,1-.68.46,4,4,0,0,1-1.52.22,1.1,1.1,0,0,1-.28-.09l-.14-.06-.15,0-.37,0-.38,0-.35-.07-.37,0-.16,0a.42.42,0,0,0-.17,0,2.36,2.36,0,0,1-1.54.22h-.07l-.08,0-1,.13-.1,0c-.06,0-.1,0-.11,0a.83.83,0,0,0-.55,0l-.29.06a.57.57,0,0,1-.26,0,.21.21,0,0,0-.11.05l-.05,0-.06,0a1.31,1.31,0,0,1-.53.06l-.29-.06-.26-.07a.7.7,0,0,0-.29,0l-.15,0-.15,0-.84.08c-.13-.23-.37-.29-.72-.17a2.2,2.2,0,0,1-.42.09l-.44,0H297l-.94.11-1,.11-.26,0-.16-.05-.17,0a.75.75,0,0,1-.9-.18l-.11.14-.11.11a1,1,0,0,0-.75.06,2,2,0,0,1-.37.09l-.2,0-.18,0-.3.09-.31,0c-.19,0-.32,0-.38-.13a.6.6,0,0,0-.15-.18l-.18-.17a.78.78,0,0,1-.54.06,2.84,2.84,0,0,1-.49-.17l-.22-.11-.22-.14a.19.19,0,0,1-.11-.11L289,52.6l0-.09a.12.12,0,0,0-.06-.06,1.35,1.35,0,0,1-.49-.6.6.6,0,0,1,.05-.44c.07-.2.16-.32.28-.35a2.25,2.25,0,0,0,.51-.28,1.32,1.32,0,0,1,1-.25.63.63,0,0,0,.61-.15.71.71,0,0,1,.22-.15l.11,0,.13-.06.36-.18.37-.2Zm1.29-.13.05-.77-.11,0-.05.2-.06.2a.45.45,0,0,0,.09.39Zm.95-22.06.17-.72.2-1,0-.16v-.17a.12.12,0,0,0-.06-.09l-.09-.06-.09.06,0,.09a8.87,8.87,0,0,0-.24,1c0,.22-.07.51-.11.87a.19.19,0,0,0,0,.11l.07.09Zm1.38,1a1.34,1.34,0,0,0,.27.79l0-.44,0-.46a1.67,1.67,0,0,0-.22-.88A2.33,2.33,0,0,0,295.83,27.82Z"/><rect class="cls-1" x="52.38" y="21.35" width="33" height="33" rx="16.5" ry="16.5"/><text class="cls-2" transform="translate(58.27 44.81)"><tspan class="cls-3">L</tspan><tspan x="11.1" y="0">P</tspan></text></svg>